<svg xmlns="http://www.w3.org/2000/svg" viewBox="0 0 32 32"><path d="M16.65625 19.375s-3.75 5.4375-9 4.3125c-.84375-.1875-1.5-.46875-1.96875-.84375-1.96875-1.59375-1.125-4.125.65625-5.15625 1.6875-1.03125 4.875-1.3125 10.3125 1.6875zM6.90625 1H25.1875C28.375 1 31 3.625 31 6.90625v14.625c-2.15625-.75-6.84375-2.34375-10.125-3.46875 1.78125-3.1875 2.625-6.09375 2.625-6.09375h-5.8125V9.8125h7.125V8.875h-7.125V5.5H14.5v3.46875H7.46875v.9375h7.125v2.0625H8.3125v1.125h11.53125c-.1875 1.875-.84375 3-1.6875 4.21875-5.8125-1.59375-10.3125-2.53125-13.21875-.1875-3 2.4375-1.40625 10.125 7.03125 8.34375 3.09375-.65625 5.53125-2.625 7.3125-4.96875L31 25.5625c-.1875 3-2.8125 5.4375-5.8125 5.4375H6.90625C3.625 31 1 28.375 1 25.09375V6.90625C1 3.625 3.625 1 6.90625 1z"/></svg>