<svg xmlns="http://www.w3.org/2000/svg" viewBox="0 0 32 32"><path d="M9.930125 9.93125c0-.766964-.49175-1.269643-1.24425-1.269643-.7385 0-1.490125.501786-1.490125 1.269643 0 .75357.751625 1.255357 1.490125 1.255357.751625 0 1.24425-.501786 1.24425-1.255357zM20.088 17.004464C20.088 16.50268 19.59625 16 18.84375 16c-.49175 0-.984375.501786-.984375 1.004464 0 .516072.49175 1.01875.984375 1.01875.751625 0 1.24425-.501785 1.24425-1.01875zM16.861 9.93125c0-.766964-.49175-1.269643-1.23025-1.269643-.751625 0-1.490125.501786-1.490125 1.269643 0 .75357.7385 1.255357 1.490125 1.255357.7385 0 1.23025-.501786 1.23025-1.255357zm8.68175 7.073214C25.54275 16.50268 25.037 16 24.2985 16c-.49175 0-.984375.501786-.984375 1.004464 0 .516072.49175 1.01875.984375 1.01875.7385 0 1.24425-.501785 1.24425-1.01875zm-3.6365-5.538393c-.314125-.04196-.629125-.05625-.95725-.05625-4.703125 0-8.421875 3.58572-8.421875 7.99375 0 .73929.109375 1.4509.314125 2.12054-.314125.02768-.615125.041968-.92925.041968-1.24425 0-2.228625-.25089-3.472875-.501784l-3.458875 1.77142.984375-3.04107C3.490125 18.023214 2 15.73482 2 12.95893c0-4.813394 4.45725-8.59375 9.912-8.59375 4.867625 0 9.146375 3.027677 9.99425 7.10089zM30 19.29197c0 2.274107-1.476125 4.297322-3.472875 5.817857l.751625 2.525-2.720375-1.520534c-.998375.250893-1.995875.51607-2.98025.51607-4.717125 0-8.421875-3.291963-8.421875-7.338392 0-4.046425 3.70475-7.33839 8.421875-7.33839C26.035375 11.95357 30 15.245538 30 19.291965z"/></svg>