<svg xmlns="http://www.w3.org/2000/svg" viewBox="0 0 32 32"><path d="M13.603516 26.236145c-4.96875.485783-9.257813-1.73494-9.58008-4.950362-.322264-3.221205 3.445314-6.216867 8.408205-6.70265 4.96875-.485784 9.25782 1.73494 9.57422 4.95036.32813 3.221206-3.43945 6.222652-8.40234 6.702652zm9.93164-10.681446c-.421875-.12723-.714844-.2082-.492187-.7576.48046-1.19133.52734-2.21494.00585-2.9494-.97266-1.37061-3.63867-1.30121-6.69141-.0347 0 0-.96094.4106-.71485-.33542.46875-1.49205.39844-2.73542-.333984-3.45832-1.6582-1.636625-6.06445.063615-9.84375 3.793735C2.64062 14.5947 1 17.561445 1 20.123372c0 4.89253 6.36328 7.870845 12.585937 7.870845 8.15625 0 13.58789-4.678554 13.58789-8.391325 0-2.24964-1.916014-3.521928-3.63867-4.048193zm5.419922-8.96386c-1.96875-2.15711-4.875-2.97832-7.558594-2.41735-.621093.13301-1.013672.73446-.878906 1.34169.134766.61301.73828 1.00048 1.359375.86747 1.910157-.39904 3.972657.18506 5.373047 1.71759 1.40039 1.53253 1.78125 3.62024 1.177734 5.44771-.19336.59566.134766 1.2318.738282 1.42843.603515.19084 1.248047-.13301 1.447265-.72868v-.00578c.84375-2.55615.31055-5.49398-1.6582-7.65109z"/><path d="M25.92578 9.291566C24.964845 8.239036 23.546876 7.84 22.246095 8.11759c-.533203.10988-.873047.636145-.76172 1.16241.11719.526265.644532.861687 1.171876.746024.63868-.133012 1.33008.063615 1.79883.57253.46875.5147.59766 1.214458.39258 1.82747-.16406.508916.11719 1.064096.63867 1.231807.52149.16193 1.07813-.11566 1.24805-.63036.41016-1.25494.15235-2.68915-.80859-3.7359zM13.878906 20.41253c-.17578.29494-.55664.433735-.85547.31229-.298827-.115663-.386717-.451085-.216795-.73446.17579-.283372.54493-.422167.83789-.312288.29297.104097.39844.433735.23438.734458zm-1.58789 2.000964c-.48047.75759-1.51172 1.08723-2.285157.74024-.76172-.341204-.99024-1.22024-.50977-1.96048.47461-.73446 1.4707-1.064097 2.23828-.746025.7793.32963 1.03125 1.20289.55664 1.96626zm1.804687-5.35518c-2.361328-.60723-5.033203.55518-6.058594 2.608192-1.04883 2.093494-.03516 4.424096 2.34961 5.18747 2.47265.786506 5.39062-.42217 6.40429-2.67759 1.00195-2.21494-.2461-4.48771-2.69532-5.118073z"/></svg>